<svg width="113" height="29" viewBox="0 0 113 29" fill="none" xmlns="http://www.w3.org/2000/svg">
<g clip-path="url(#clip0)">
<path d="M39.8 24.25C38.4167 24.25 37.2167 24.0333 36.2 23.6C35.2 23.1667 34.4333 22.6 33.9 21.9C33.3667 21.1833 33.0833 20.4167 33.05 19.6C33.05 19.4667 33.1 19.35 33.2 19.25C33.3167 19.1333 33.45 19.075 33.6 19.075H34.875C35.1917 19.075 35.4083 19.2417 35.525 19.575C35.675 20.275 36.1 20.875 36.8 21.375C37.5167 21.875 38.5167 22.125 39.8 22.125C41.1833 22.125 42.225 21.8833 42.925 21.4C43.625 20.9 43.975 20.2083 43.975 19.325C43.975 18.7583 43.8 18.3 43.45 17.95C43.1167 17.6 42.6167 17.2917 41.95 17.025C41.2833 16.7583 40.2833 16.425 38.95 16.025C37.65 15.6583 36.6167 15.2667 35.85 14.85C35.0833 14.4333 34.5083 13.9167 34.125 13.3C33.7417 12.6833 33.55 11.9083 33.55 10.975C33.55 10.075 33.7917 9.26667 34.275 8.55C34.775 7.83333 35.4833 7.275 36.4 6.875C37.3167 6.45833 38.4083 6.25 39.675 6.25C40.975 6.25 42.0917 6.48333 43.025 6.95C43.9583 7.4 44.6667 7.975 45.15 8.675C45.6333 9.375 45.8917 10.075 45.925 10.775C45.925 10.9083 45.875 11.025 45.775 11.125C45.6917 11.225 45.5667 11.275 45.4 11.275H44.075C43.725 11.275 43.5083 11.1167 43.425 10.8C43.325 10.1 42.9333 9.525 42.25 9.075C41.5667 8.60833 40.7083 8.375 39.675 8.375C38.5417 8.375 37.65 8.59167 37 9.025C36.35 9.45833 36.025 10.1 36.025 10.95C36.025 11.5167 36.175 11.9833 36.475 12.35C36.7917 12.7167 37.2667 13.0417 37.9 13.325C38.5333 13.5917 39.4583 13.9 40.675 14.25C42.0917 14.6333 43.2083 15.0333 44.025 15.45C44.8417 15.85 45.45 16.3583 45.85 16.975C46.25 17.575 46.45 18.3417 46.45 19.275C46.45 20.825 45.85 22.0417 44.65 22.925C43.45 23.8083 41.8333 24.25 39.8 24.25ZM49.0018 24C48.8351 24 48.6934 23.95 48.5768 23.85C48.4768 23.7333 48.4268 23.5917 48.4268 23.425V6.825C48.4268 6.65833 48.4768 6.525 48.5768 6.425C48.6934 6.30833 48.8351 6.25 49.0018 6.25H50.2518C50.4184 6.25 50.5518 6.30833 50.6518 6.425C50.7684 6.525 50.8268 6.65833 50.8268 6.825V12.65C51.3101 12.0333 51.8768 11.5667 52.5268 11.25C53.1768 10.9167 53.9851 10.75 54.9518 10.75C56.5518 10.75 57.7934 11.2667 58.6768 12.3C59.5768 13.3167 60.0268 14.675 60.0268 16.375V23.425C60.0268 23.5917 59.9684 23.7333 59.8518 23.85C59.7518 23.95 59.6184 24 59.4518 24H58.2018C58.0351 24 57.8934 23.95 57.7768 23.85C57.6768 23.7333 57.6268 23.5917 57.6268 23.425V16.5C57.6268 15.3167 57.3351 14.4 56.7518 13.75C56.1851 13.1 55.3601 12.775 54.2768 12.775C53.2268 12.775 52.3851 13.1083 51.7518 13.775C51.1351 14.425 50.8268 15.3333 50.8268 16.5V23.425C50.8268 23.5917 50.7684 23.7333 50.6518 23.85C50.5518 23.95 50.4184 24 50.2518 24H49.0018ZM66.2611 24.25C65.4445 24.25 64.6861 24.0833 63.9861 23.75C63.2861 23.4167 62.7278 22.9667 62.3111 22.4C61.9111 21.8167 61.7111 21.175 61.7111 20.475C61.7111 19.375 62.1611 18.475 63.0611 17.775C63.9778 17.0583 65.2111 16.5917 66.7611 16.375L70.4861 15.85V15.125C70.4861 13.425 69.5111 12.575 67.5611 12.575C66.8278 12.575 66.2278 12.7333 65.7611 13.05C65.2945 13.35 64.9445 13.7083 64.7111 14.125C64.6611 14.275 64.5945 14.3833 64.5111 14.45C64.4445 14.5167 64.3445 14.55 64.2111 14.55H63.1361C62.9861 14.55 62.8528 14.5 62.7361 14.4C62.6361 14.2833 62.5861 14.15 62.5861 14C62.6028 13.6 62.7861 13.15 63.1361 12.65C63.5028 12.1333 64.0611 11.6917 64.8111 11.325C65.5611 10.9417 66.4861 10.75 67.5861 10.75C69.4528 10.75 70.7945 11.1917 71.6111 12.075C72.4278 12.9417 72.8361 14.025 72.8361 15.325V23.425C72.8361 23.5917 72.7778 23.7333 72.6611 23.85C72.5611 23.95 72.4278 24 72.2611 24H71.1111C70.9445 24 70.8028 23.95 70.6861 23.85C70.5861 23.7333 70.5361 23.5917 70.5361 23.425V22.35C70.1695 22.8833 69.6361 23.3333 68.9361 23.7C68.2361 24.0667 67.3445 24.25 66.2611 24.25ZM66.7861 22.375C67.8695 22.375 68.7528 22.025 69.4361 21.325C70.1361 20.6083 70.4861 19.5833 70.4861 18.25V17.55L67.5861 17.975C66.4028 18.1417 65.5111 18.425 64.9111 18.825C64.3111 19.2083 64.0111 19.7 64.0111 20.3C64.0111 20.9667 64.2861 21.4833 64.8361 21.85C65.3861 22.2 66.0361 22.375 66.7861 22.375ZM80.1801 24.25C78.4467 24.25 77.1384 23.6833 76.2551 22.55C75.3717 21.4167 74.9051 19.9833 74.8551 18.25L74.8301 17.5L74.8551 16.75C74.9051 15.0333 75.3717 13.6083 76.2551 12.475C77.1384 11.325 78.4467 10.75 80.1801 10.75C81.8967 10.75 83.2467 11.3583 84.2301 12.575V6.825C84.2301 6.65833 84.2801 6.525 84.3801 6.425C84.4967 6.30833 84.6384 6.25 84.8051 6.25H86.0051C86.1717 6.25 86.3051 6.30833 86.4051 6.425C86.5217 6.525 86.5801 6.65833 86.5801 6.825V23.425C86.5801 23.5917 86.5217 23.7333 86.4051 23.85C86.3051 23.95 86.1717 24 86.0051 24H84.8801C84.7134 24 84.5717 23.95 84.4551 23.85C84.3551 23.7333 84.3051 23.5917 84.3051 23.425V22.375C83.3384 23.625 81.9634 24.25 80.1801 24.25ZM80.7051 22.225C81.8551 22.225 82.7134 21.85 83.2801 21.1C83.8634 20.3333 84.1801 19.425 84.2301 18.375C84.2467 18.1917 84.2551 17.875 84.2551 17.425C84.2551 16.9583 84.2467 16.6333 84.2301 16.45C84.1967 15.4667 83.8801 14.6083 83.2801 13.875C82.6801 13.1417 81.8217 12.775 80.7051 12.775C79.5217 12.775 78.6551 13.1417 78.1051 13.875C77.5717 14.6083 77.2801 15.575 77.2301 16.775L77.2051 17.5C77.2051 20.65 78.3717 22.225 80.7051 22.225ZM94.4982 24.25C92.7816 24.25 91.4066 23.725 90.3732 22.675C89.3566 21.6083 88.7982 20.1583 88.6982 18.325L88.6732 17.475L88.6982 16.65C88.8149 14.85 89.3816 13.4167 90.3982 12.35C91.4316 11.2833 92.7899 10.75 94.4732 10.75C96.3232 10.75 97.7566 11.3417 98.7732 12.525C99.7899 13.6917 100.298 15.275 100.298 17.275V17.7C100.298 17.8667 100.24 18.0083 100.123 18.125C100.023 18.225 99.8899 18.275 99.7232 18.275H91.0732V18.5C91.1232 19.5833 91.4482 20.5083 92.0482 21.275C92.6649 22.025 93.4732 22.4 94.4732 22.4C95.2399 22.4 95.8649 22.25 96.3482 21.95C96.8482 21.6333 97.2149 21.3083 97.4482 20.975C97.5982 20.775 97.7066 20.6583 97.7732 20.625C97.8566 20.575 97.9982 20.55 98.1982 20.55H99.4232C99.5732 20.55 99.6982 20.5917 99.7982 20.675C99.8982 20.7583 99.9482 20.875 99.9482 21.025C99.9482 21.3917 99.7149 21.8333 99.2482 22.35C98.7982 22.8667 98.1566 23.3167 97.3232 23.7C96.5066 24.0667 95.5649 24.25 94.4982 24.25ZM97.9232 16.55V16.475C97.9232 15.325 97.6066 14.3917 96.9732 13.675C96.3566 12.9417 95.5232 12.575 94.4732 12.575C93.4232 12.575 92.5899 12.9417 91.9732 13.675C91.3732 14.3917 91.0732 15.325 91.0732 16.475V16.55H97.9232ZM106.788 24.25C105.621 24.25 104.638 24.0667 103.838 23.7C103.054 23.3167 102.463 22.8833 102.063 22.4C101.679 21.9167 101.488 21.5167 101.488 21.2C101.488 21.0333 101.546 20.9083 101.663 20.825C101.796 20.725 101.929 20.675 102.063 20.675H103.188C103.354 20.675 103.504 20.7583 103.638 20.925C104.038 21.3917 104.471 21.7583 104.938 22.025C105.404 22.2917 106.029 22.425 106.813 22.425C107.679 22.425 108.379 22.2583 108.913 21.925C109.463 21.575 109.738 21.1 109.738 20.5C109.738 20.1 109.621 19.775 109.388 19.525C109.171 19.2583 108.788 19.0333 108.238 18.85C107.704 18.65 106.904 18.4333 105.838 18.2C104.388 17.8833 103.354 17.425 102.738 16.825C102.138 16.225 101.838 15.45 101.838 14.5C101.838 13.8667 102.021 13.2667 102.388 12.7C102.771 12.1167 103.321 11.65 104.038 11.3C104.771 10.9333 105.646 10.75 106.663 10.75C107.729 10.75 108.638 10.925 109.388 11.275C110.138 11.625 110.696 12.0417 111.063 12.525C111.446 12.9917 111.638 13.3833 111.638 13.7C111.638 13.85 111.579 13.975 111.463 14.075C111.363 14.175 111.238 14.225 111.088 14.225H110.038C109.838 14.225 109.671 14.1417 109.538 13.975C109.271 13.6583 109.038 13.4167 108.838 13.25C108.654 13.0667 108.379 12.9083 108.013 12.775C107.663 12.6417 107.213 12.575 106.663 12.575C105.863 12.575 105.246 12.75 104.813 13.1C104.379 13.4333 104.163 13.875 104.163 14.425C104.163 14.775 104.254 15.075 104.438 15.325C104.621 15.5583 104.971 15.775 105.488 15.975C106.021 16.175 106.788 16.3833 107.787 16.6C109.371 16.9333 110.488 17.4167 111.138 18.05C111.804 18.6667 112.138 19.4583 112.138 20.425C112.138 21.1417 111.929 21.7917 111.513 22.375C111.096 22.9583 110.479 23.4167 109.663 23.75C108.863 24.0833 107.904 24.25 106.788 24.25Z" fill="#1F1F1F"/>
<path fill-rule="evenodd" clip-rule="evenodd" d="M21.2826 19.4109L19.207 18.2249L11.7117 22.5043C11.2708 22.7568 10.7292 22.7568 10.2884 22.5043L2.79496 18.2249L0.717397 19.4109C0.568497 19.4961 0.476624 19.6545 0.476624 19.8261C0.476624 19.9976 0.568497 20.156 0.717397 20.2412L10.7609 25.9803C10.9079 26.0643 11.0883 26.0643 11.2353 25.9803L21.2788 20.2412C21.4277 20.156 21.5196 19.9976 21.5196 19.8261C21.5196 19.6545 21.4277 19.4961 21.2788 19.4109H21.2826Z" fill="#258AFF"/>
<path fill-rule="evenodd" clip-rule="evenodd" d="M21.2826 15.1067L19.207 13.9207L11.7117 18.2001C11.2708 18.4526 10.7292 18.4526 10.2884 18.2001L2.79496 13.9207L0.717397 15.1067C0.568497 15.1919 0.476624 15.3503 0.476624 15.5219C0.476624 15.6934 0.568497 15.8518 0.717397 15.937L10.7609 21.6761C10.9079 21.7601 11.0883 21.7601 11.2353 21.6761L21.2788 15.937C21.4277 15.8518 21.5196 15.6934 21.5196 15.5219C21.5196 15.3503 21.4277 15.1919 21.2788 15.1067H21.2826Z" fill="#258AFF"/>
<path fill-rule="evenodd" clip-rule="evenodd" d="M21.2826 10.8024L11.2392 5.06322C11.0922 4.97925 10.9117 4.97925 10.7647 5.06322L0.721242 10.8024C0.572343 10.8875 0.480469 11.0459 0.480469 11.2175C0.480469 11.389 0.572343 11.5474 0.721242 11.6326L10.7647 17.3717C10.9117 17.4557 11.0922 17.4557 11.2392 17.3717L21.2826 11.6326C21.4315 11.5474 21.5234 11.389 21.5234 11.2175C21.5234 11.0459 21.4315 10.8875 21.2826 10.8024Z" fill="#258AFF"/>
</g>
<defs>
<clipPath id="clip0">
<rect width="113" height="29" fill="white"/>
</clipPath>
</defs>
</svg>
